<svg version="1" xmlns="http://www.w3.org/2000/svg" width="1072" height="1072" viewBox="0 0 804.000000 804.000000"><path d="M125.2 141c.3.8 1.5 1.4 2.8 1.4 1.3 0 2.5-.6 2.8-1.4.2-.9 0-1.1-.5-.5-.4.5-1.5 1-2.3 1-.8 0-1.9-.5-2.3-1-.5-.6-.7-.4-.5.5zM187.9 141.2c1.4 1.9 3.2 1.5 3-.5 0-.8-.2-.8-.6.1-.4 1-.8 1-2.1 0-1.5-1.2-1.6-1.1-.3.4z"/><path d="M192.9 141c-.1.3-.1.8 0 1.2 0 .3-1.3 1.1-2.9 1.7-3.3 1.1-4 3.1-1.2 3.2 1.1 0 1.2.2.4.6-1.9.7-4.7-1.8-3-2.8.7-.4.9-1.2.4-1.6-.4-.4-1.4.1-2.2 1.1-1.1 1.6-1.1 2.2-.1 2.9.8.6.4.7-1 .4-1.3-.3-2.6-.1-2.9.4-.3.5-1 .6-1.6.3-1.8-1.1-16.8-1.1-16.8.1 0 .6-.3.7-.8 0-1.1-1.5-3.2-1.7-3.2-.3 0 1-.2 1-.9 0-.4-.8-1.2-1.4-1.6-1.4-.4 0-1.2.6-1.6 1.4-.7 1-.9 1-.9-.2 0-1.3-.1-1.3-1.1 0-.9 1.3-1 1.3-.6 0 .2-.8 1-1.4 1.7-1.2 1 .2 1-.1 0-1.4-.9-1-1.6-1.2-1.8-.5-.2.6-.8 1.1-1.3 1.1-.6 0-.8-.4-.5-.8.2-.4-2.6-.8-6.4-.9-6.3-.2-6.8 0-6.5 1.8.2 1.1 0 1.7-.6 1.4-.5-.4-.7-1-.4-1.5.3-.5.1-1.1-.5-1.5-.5-.3-1-1.1-1-1.6 0-.6.5-.7 1.2-.3.7.4.8.3.4-.5-1-1.5-2.6-.5-2.7 1.7 0 .9-.3 1.2-.5.5-.4-.7-1.4-.9-3.4-.3-1.5.4-3.2.4-3.7-.1s-.9.1-.9 1.5c0 2 .4 2.3 2.4 2 1.4-.3 2.1-.1 1.7.6-.3.6 0 .7.9.4.8-.3 1.4-1.1 1.2-1.7-.1-.7-.1-.9.1-.4.3.4 1 .4 1.6 0 .8-.5.8-.2 0 .9-.7.8-.9 1.9-.5 2.3.4.5 0 .4-.8 0-1.3-.8-1.3-.7-.1.8.7 1 2.1 1.6 3 1.5.9-.2 1.5.3 1.3 1-.1.7.5 1.2 1.5 1 1.2-.2 1.8.4 1.9 1.9.1 1.2-.2 2-.7 1.7-.4-.2-.6-1.1-.2-1.9.3-1.1.1-1.3-1-1-1.5.7-1.8 3.6-.3 4.6.4.4-.9.5-3 .4-2.2-.1-4.5.2-5.1.8-.9.6-1.3.6-1.3-.3 0-.9-.4-.9-1.7.1-1.2 1-1.5 1.1-.9.1.8-1.3.6-1.3-6.3.2-1.3.3-2.9.2-3.5-.2-.6-.4-1.5-.7-2-.7s-1.1-.6-1.4-1.3c-.4-1.4 1.9-1.2 3 .3.5.6.8.5.8-.3 0-.7.5-1 1.1-.6.8.4.7.9-.2 1.5-1 .6-1 .9-.2.9.6 0 1.5-.5 1.8-1 .4-.6 1-.8 1.5-.5.5.3 1.2 0 1.6-.6.4-.8.9-.7 1.5.2.7 1.1.9 1.1.9.1 0-.8.5-1 1.3-.5 1.9 1.2 3.6 1.2 4.3.1.4-.6.9-.6 1.3-.1.3.4 1.6-.2 2.7-1.4 1.8-1.7 1.9-2.3.7-2.7-.8-.3-1.2-.2-.9.3 1.3 2-2.7 2.7-15 2.7-10.6-.1-13 .2-12.6 1.2.2.8.8 1 1.1.5.8-1.1 3.4-1 4.3.2 1.3 1.7.9 2.8-.6 1.6-1-.8-1.6-.9-2.1-.1-.3.6-1.2.7-1.8.3-1.6-.9-6.7-1.1-6.7-.2 0 1.1-3.3.4-3.8-.9-.2-.7.7-1 2.7-.7 2 .2 2.8-.1 2.5-.8-.2-.7-2.5-1.2-5.3-1.2-4.3 0-4.8.2-4 1.6.4.9.5 2 .1 2.4-.4.5.1.5 1 .2 2.4-.9 4 1.5 2.1 3.2-1.3 1.2-1.4 1.1-.8-.9.5-1.6.4-2-.4-1.5-1.3.7-4.4-1.3-3.7-2.4.3-.4.1-1.3-.4-2.1-.6-1-.8.1-.5 3.2.2 2.7-.1 4.8-.6 4.8s-.9-.5-.9-1.2c0-.6-.2-.9-.5-.6-1.1 1.1.8 3.7 2.6 3.5 2.2-.1 2.2-.2.9-2.7-.8-1.6-.7-1.8.4-1.4.8.3 1.3 1.6 1.1 3-.2 1.9.1 2.4 1.4 2 1.1-.4 1.1-.2-.3.9-1.8 1.3-2.3 1.2-5.5-1.2-2-1.4-3-2-2.4-1.3 1.6 1.7 1.7 3.4.1 2.4-.6-.4-.8-.3-.5.4.4.5 1.6.8 2.7.5 1.1-.3 2 0 2 .6s-.7 1.1-1.6 1.1c-1.9 0-1.4 2.2.7 2.8 1.1.3 1.1.2-.1-.7-.8-.6-1-1.1-.5-1.2.6 0 2-.2 3.1-.5 3.1-.5 5.2 2.1 2.7 3.4-1 .5-2.8.8-4.1.6-1.6-.3-2.1 0-1.6.8s.3.8-.7.2c-2.3-1.4-6.3-1.2-8.2.5-1 .8-1.7 1.1-1.5.6.3-1-3.6-5.5-4.8-5.5-.4 0 .1 1.1.9 2.4 1.5 2.2 1.5 2.4-.1 2.1-.9-.2-1.9-.4-2.2-.5-.3-.1-.9-.2-1.3-.1s-.3-.8.3-1.9c.8-1.5.8-1.8-.3-1.5-.7.3-1.4 1.7-1.5 3.1-.1 1.4.2 2.3.8 1.9.6-.3 1.4-.4 2 0 1.1.7.2 3.5-1.2 3.5-.5 0-.6-.5-.3-1 .3-.6.2-1-.4-1-.5 0-1.3.4-1.6 1-.3.5-1.1 1-1.6 1-.6 0-.7-.5-.3-1.2.4-.7.3-.8-.4-.4-1.6 1-1.5 1.4.9 2.7 1.7.9 2 .8 1.4-.3-.4-.7.2-.2 1.3 1.2 1.1 1.3 1.8 2.8 1.6 3.2-.7 1.1-3.4 1-3.4-.2 0-.5.8-.7 1.8-.3 1.2.4 1.4.3.6-.6-.6-.6-2-1.3-3.1-1.5-1.8-.4-2 0-1.8 3.5.2 2.1-.1 3.9-.6 3.9s-.8-.6-.6-1.3c.1-.8-1.6-1.2-6-1.2-3.5-.1-5.7.3-5 .7.9.6.9 1 0 1.6-.7.4-1.1 1.6-.9 2.7.3 1.7 1.1 2 6.3 2.1 7.1.1 8.7.8 7.3 3.4-.6 1.1-.6 2.1-.1 2.4.5.3 1.2-.4 1.5-1.7l.6-2.2 1.8 2.1c2.2 2.5 5 2.1 3-.4-1.2-1.5-1.1-1.5.4-.4 2 1.6 1.4 4.1-.9 3.8-.8-.1-2-1.1-2.6-2.1-1-1.9-1-1.9-1.7 0-.4 1.1-1.2 2.1-1.9 2.1-2.4.3-2.6.5-1.1 1.4 1.2.8 1.3 1.2.2 1.9-.8.4-1.3 1.2-1.2 1.7.1.5-.3 1-.9 1.2-1.4.5-1.4-1.5-.1-2.3.5-.3 1-1.1 1-1.8 0-.8-.3-.8-1.2.1-1.8 1.8-3.8 1.5-3.2-.6.5-1.4.4-1.5-.5-.2-.8 1.1-.6 1.8.7 2.9 1.6 1.2 1.5 1.3-.5.8-1.4-.3-2.3 0-2.3.6 0 .9-.2.9-.8.1-.8-1.2-4.2-1.5-4.2-.3 0 .4-1.5.6-3.4.5-2.7-.3-3.3 0-3.1 1.3.1.9-.5 2.5-1.4 3.6-.9 1.1-1.2 1.7-.7 1.2.5-.4 2 0 3.4.9 1.7 1.1 2.2 1.2 1.7.3-.5-.8-.5-1.1 0-.7.4.4 1.3.3 2-.2.8-.7 1.2-.5 1.2.5 0 .8-.5 1.1-1 .8-.6-.4-.8.1-.4 1.1s.3 1.5-.3 1.1c-.6-.4-.8.6-.6 2.5.2 1.7 0 3.2-.4 3.5-.3.2-.7-.1-.8-.8-.1-.7-.3-2.3-.5-3.6-.2-1.4-1-2.7-1.8-2.9-1.2-.3-1.2-.2 0 .6.9.7 1 1.2.2 1.6-.8.5-.8 1.3-.1 2.7.6 1 .7 1.9.3 1.8-2.2-.4-2.5.3-.7 1.7 1.8 1.5 1.8 1.6-.4.3-2.1-1.3-2.8-3.8-1-3.2 1.2.4 1-1.5-.2-2.2-.6-.4-.7-1.2-.3-1.8.4-.7.1-.7-.9.1-1 .8-1.4 2-1.1 3 .6 1.5.5 1.6-1.3.2-1.7-1.4-1.8-1.4-.6.2.7.9.9 1.8.5 2-.4.3-.2.3.6.1.8-.2 1.1.2.8 1.2-.4.8-.1 1.7.5 2.1.7.5.8.2.4-.7-.6-1-.4-1 .6.1.8.8 2 2.1 2.8 2.8 1.3 1.1 1.3 1.2-.3.6-1.3-.5-1.6-.2-1.1.9.3.9 1.4 1.4 2.4 1.2 1.2-.2 1.7.2 1.6 1.3-.4 2.1-5.4 2.4-7.7.5-1.2-1-2.3-1.1-4.3-.4-3.8 1.5-3.2.4.7-1.2 3.8-1.6 5.8-1.2 5.1 1.1-.4 1.3-.2 1.2.7-.2.9-1.5.9-2-.5-2.8-.9-.5-1.4-1.3-1.1-1.8.3-.4-.2-1.1-1-1.4-1.1-.4-1.5 0-1.3 1.1.2 1.1-.4 1.8-1.7 2-1.9.3-1.9.3-.1-.5 2.7-1.2.9-1.9-4.5-1.9-3.8-.1-4.6.2-4.4 1.6.2.9.4 2 .4 2.5.1.4 1.3.1 2.7-.9 1.4-.9 2.8-1.4 3.2-1.1.3.3 0 .6-.6.6-.7 0-1.1.5-1 1.2.2.7-.4 1.3-1.2 1.4-.8 0-2.1.2-2.9.2-.8.1-1.1.5-.7.9.4.5 3.3.8 6.4.8h5.7l.3 8.4c.3 7.9.2 8.3-1.4 7-1.2-.9-1.5-1-1-.2.4.8.1 1.3-.9 1.3-1.1 0-1.4.7-1.1 2.4.3 1.8.1 2.3-.9 2-.8-.3-1.1-1.2-.9-1.9.3-.7.1-1.6-.5-2-.6-.3-.9 0-.5.8.3.8-.3 2-1.2 2.8-2 1.6-2.4 1.6-3.5-.3-.6-.9-.9-.9-.9-.1 0 1.9-3.7 3.6-4.6 2.1-.4-.6-.3-.8.2-.5.6.3 1.6.1 2.4-.5 1.2-.8 1.2-.9-.2-.4-1 .3-1.8.1-1.8-.4s-.9-.8-2-.7c-1 .1-1.7.3-1.5.6.3.2-.3.9-1.2 1.6-1.3.9-1.3 1.4-.3 2 .9.5 1.1.4.6-.3-.8-1.3.6-1.7 1.8-.5 1.1 1.2 3.9 1.2 5.9.2 2.6-1.4 6.6-2.1 7.8-1.3.6.4.5 1.4-.4 2.8-1.2 1.7-1.2 2.4-.2 3.3.7.6 1.6.9 2.1.5.4-.4.4-.2 0 .5-.3.6.1 1.6 1.1 2.1 1.3.8 1 1-1.4.9-2-.1-2.8-.5-2.3-1.2.5-.6-.2-2.3-1.6-4-1.3-1.7-2.4-2.4-2.4-1.7s-.5 1-1.1.6c-.8-.4-.7-.9.2-1.5.8-.5.9-.9.3-.9-.6 0-1.7.7-2.4 1.5s-1.6 1.2-2.1.9c-.5-.3-.9 0-.9.5 0 1.5 1.3 1.4 2.9-.2 1.1-1 1.3-.9.8.4-.4 1.1 0 1.6 1.1 1.5 1 0 1.6.5 1.4 1.3-.3 1.2 0 1.2 1.2.2.9-.7 1.6-.8 2-.2.4.5.2 1.2-.4 1.6-.6.3-.8 1.6-.6 2.9.2 1.4-.1 2.3-.8 2.3-.7 0-1.3-.6-1.3-1.3 0-.7.4-1.1.9-.8.4.3.5-.2.1-1.1-1.1-2.9-2.1.4-1.9 6.2l.1 5.3-3.5.1c-1.9.1-4.7.1-6.1.1-1.4.1-2.6.7-2.6 1.4s.5 1 1.1.6c.6-.4 2.2-.7 3.4-.7 2.2-.1 2.2 0 .6 1.2-.9.7-2 1-2.4.8-1-.6-3.5 2.4-2.6 3.2 1.4 1.5 3.5 1.1 2.9-.5-.3-1.3-.1-1.2 1.2.3 1.4 1.7 1.7 1.8 2.5.5.7-1 1-1.1 1-.3 0 .7.9 1.3 2 1.3 1.3 0 2 .7 2 2 0 1.7-.6 2-3.2 2-1.8-.1-4.2.1-5.3.3-1.1.2-2.6-.1-3.4-.7-1.2-.9-1.3-.8-.6.3.6 1.1.4 1.3-.8.8-.9-.3-1.9-.1-2.3.5-.4.7-.3.8.4.4 1.3-.8 1.6.6.5 1.8-1.1 1-1 6.6 0 5.9.5-.3.6.5.2 1.8-.4 1.3-.4 2.1 0 1.7 1.2-1.2 1.4-5.8.2-5.8-.6 0-.2-.7.9-1.5 1.3-1 1.5-1.4.5-1.5-1.4 0-.7-1.5.7-1.5.4 0 1.2-.4 1.9-.8.6-.4 1.4-.3 1.7.2.4.5.2 1.2-.4 1.6-.5.3-1 .3-1-.1s-.6.1-1.4 1.1c-1.4 2-1.2 3.5.5 3.5.5 0 .8-.5.7-1.1-.2-.6.3-1.3 1-1.4.7-.2.8-.1.2.2-.7.3-.7 1 .2 2.1.8 1 .9 1.3.1.9-1.2-.7-4.3 1.7-4.3 3.3 0 .5.8.6 1.8.3 1.5-.6 1.5-.5.3 1-.7.9-1.1 1.8-.7 1.8.3.1 1.1.2 1.6.3 1.4.1 3 2.8 2.4 3.8-.3.4-1.5.8-2.7.9-1.2 0-1.6.3-.9.6 1 .4 1 .7-.2 1.7-2.2 1.7-1 6.5 1.5 5.9 1-.3 1.9 0 1.9.6s-.5 1-1.1.9c-.6-.2-1.4.4-1.6 1.2-.4 1.3-.3 1.3.6 0 .6-.8 1.1-1.1 1.1-.5 0 .5.7.1 1.5-.9 1.5-2 1.5-2 3 0 .8 1 1.5 1.4 1.5.9 0-.6.5-.3 1.1.5.9 1.3 1 1.3.6 0-.2-.8-1-1.4-1.6-1.2-.6.1-1.1-.3-1.1-.9 0-1.9 3.4-.4 4 1.7.3 1.2 1.2 2 2.1 1.9 1-.2 1.6.3 1.5 1.1-.1.8-.6 1.3-1.2 1.2-.5-.2-.7-.8-.6-1.3.2-.6 0-.6-.5-.2-.4.5-.8 1.4-.8 2 0 .7-1 1.2-2.1 1.1-1.5-.1-2.1.5-2 2 .1 1.5-.5 2.1-1.9 2.1-1.1 0-2 .4-2 1 0 1.9-1.7 3.6-3 3.2-1.7-.7-1.4 3.5.4 4.9 1.2.9 1.2 1.2 0 1.9-.8.5-1.1.5-.7 0 1-1.1-2.9-3.8-4.2-3-.6.4-.9 2.6-.6 5 .2 3.1-.1 4.5-1 4.9-.7.3-1.6 0-2-.6-.4-.7-.3-.8.4-.4s1.2.2 1.2-.3c0-.6-.6-1.1-1.4-1.1-1.1 0-1.4 1.3-1.2 5.6.2 4.3-.1 5.7-1.4 6.4-1 .5-2 .6-2.4.3-.3-.3-.6 2.1-.6 5.5 0 5.5-.2 6.2-2 6.2-2 0-2 .7-2 216v216h253.2c197.8 0 253.5-.3 254.7-1.3 1.1-.9 1.3-.9.8 0-.6.9 8.3 1.2 39.3 1.3h40v-16c0-15.5-.1-16-2.1-16s-2-.4-1.8-22.2c.2-19 .4-22.5 1.8-23.6 1.4-1.1 1.4-1.1-.3-.5-1.3.4-1.7.3-1.2-.5.4-.7-.3-2.2-1.7-3.4-1.9-1.8-2.4-3.3-2.3-6.9.1-3.3-.3-4.5-1.1-4.2-.7.3-1 1-.6 1.7.4.6-.1.5-1-.3-1-.8-1.7-2.1-1.5-3 .1-.9-.1-2.2-.5-2.9-.5-.6-.4-1.3.2-1.3 2-.3 2.6-.4 3.8-1.2.6-.4 1.8-.1 2.6.7 1.3 1.3 1.4.9 1.3-3.1-.1-4.8-2-6.8-3.7-4.2-.7 1.1-.9 1.1-.9.1 0-.7-.5-1-1-.7-1.1.7-1.7-.5-2.4-4.8-.3-1.6-.1-2.5.5-2.2.5.4.7 1 .5 1.3-.2.4 1.5.8 3.8.8 2.8 0 4.3-.5 4.3-1.3 0-.9-.4-1-1.4-.2-1.5 1.3-1.7.1-.4-2 .5-.8 1.6-1.1 2.5-.8.8.3 1.8.1 2.2-.5.4-.7.3-.8-.5-.4-.8.5-1 0-.7-1.9.4-2.2.2-2.4-.9-1.5-1.8 1.5-2.1.5-2-5.8.1-2.8-.2-5.2-.6-5.2-.5 0-.9-.5-.9-1.1 0-.5.5-.7 1.2-.3.7.4.8.3.4-.5-.4-.6-1.1-.9-1.6-.6-1.1.7-.9 4.5.2 4.5.4 0 .8.5.8 1.1 0 .8-.4.8-1.4 0-1-.8-1.3-2.6-1.1-5.2.3-2.1 0-3.9-.5-3.9-.6 0-.9.3-.9.7.5 2.9-.2 3.6-1.6 1.7-1.2-1.5-1.6-1.6-2.4-.5-.5.8-1.1.9-1.5.3-.3-.6.3-1.3 1.4-1.7 1.1-.4 1.7-1.1 1.4-1.7-.4-.6-.2-.8.4-.4.6.3 1.4.2 1.7-.4.5-.8 1.1-.7 2.2.1 1.1 1 1.6 1 2.2.1 1-1.7.6-9.1-.6-10.3-.7-.7-.9-.2-.8 1.5.2 1.5-.1 2.4-.5 2.1-1.2-.7-.8-4.8.5-5.7.6-.5.5-.8-.3-.8-.9 0-1.3-1.2-1.1-3.8.2-2.1-.1-4.4-.6-5.2-.8-1.3-.6-1.3.8-.1.9.7 1.5 1.7 1.2 2-.2.4.1.8.8.8.7 0 1.3-1.7 1.3-4.4.2-3.7 0-4.2-1.2-3.2s-1.3.9-.8-.6c.6-1.4.4-1.6-.7-1-.8.4-1.1.5-.7 0 .4-.4.2-1.5-.4-2.4-1-1.2-.8-1.2.8.2 2.5 2.1 4.1 2.3 2.4.2-.7-.9-1-1.8-.6-2.2.3-.3.6-.1.6.7 0 1 .3 1 1.5 0 1.1-.9 1.5-.9 1.5-.1 0 .7.5.9 1.1.5 1.8-1.1-.8-2.2-4.2-1.8-1.6.2-2.9-.1-2.9-.6 0-.6.5-1 1-1 .6 0 1-.4 1-.9 0-.6-.8-.8-1.7-.7-1 .2-2.7 0-3.8-.5-1.1-.4-1.4-.8-.7-.8.7-.1 1-.6.6-1.2-.5-.8-.1-.8 1.4 0s2.1.7 2.6-.4c.3-.8.1-1.7-.4-2-.6-.4-1-.1-1 .5s-.5.8-1 .5c-.6-.4-.1-1.4 1.2-2.5 1.5-1.3 1.8-1.9.9-2-.8 0-1.2-.2-.9-.5.8-.8 3.8.6 3.8 1.7 0 .5-.4.7-.8.4-.5-.3-.9.1-.9.9s.5 1.5 1 1.5.4.6-.2 1.4c-.9 1-.8 1.5.1 1.9 1 .3 1.3-1.1 1.3-5.4.1-4.9-.1-5.6-1.5-4.9-.9.5-2 .3-2.8-.6-.7-.8-.9-1.4-.4-1.4s.9-.6.9-1.4c0-1-.9-1.1-3.4-.6-2.9.7-3.2.6-2.2-.6.6-.8 1.8-1.3 2.7-1.2.8.2 1.6-.3 1.8-1 .1-.7 0-.8-.2-.3-.3.6-1.2.7-2 .4-.8-.3-2 0-2.8.6-1.1.9-1.3.7-1.2-1.1.1-1.5-.4-2.2-1.3-2-1.2.3-1.2 0-.2-1.2 1.3-1.6 3.6-1.2 2.6.4-.3.4.1 1 .8 1.3.9.3 1.3-.2 1.2-1.6-.1-1.2-.4-2-.7-1.7-.3.3-1.6-.4-2.8-1.5-1.7-1.5-1.9-2.1-.8-3 .7-.5 1.4-1.9 1.6-3 .2-1.5 0-1.6-.6-.7-.7 1.1-1 .9-1.5-.7-.2-1.1-.2-2.2.1-2.6.3-.3.6-1.4.7-2.4.1-1.3-.4-1.8-1.7-1.6-1.9.4-6.1-4.1-5.2-5.6.3-.5.1-.9-.3-.9-.5 0-.8-2-.7-4.4.1-3.5-.1-4.3-1.3-3.9-1.2.5-1.2.7-.1 1.5.9.7.8.8-.5.4-1-.3-2.1-.6-2.5-.6-.3 0 .3-.7 1.4-1.6 1-.8 1.3-1.3.7-.9-.7.3-1.4.1-1.4-.4-.3-2-.4-2.6-1.1-3.7-.5-.7 1-1 4.8-.9 4.2.2 5.4-.1 5-1.1-.5-1.4 1.7-3.8 2.7-2.8.3.3.4-.1.3-1-.1-.9-.6-1.5-1.2-1.4-.5.2-.8.7-.6 1.3.2.5 0 .6-.5.2-.4-.5-.8-2.1-.8-3.5 0-1.5-.6-2.8-1.2-2.8-.7-.1-2-.2-2.9-.3-.9 0-1.3-.6-.9-1.4.4-.6 0-.5-.7.4-1.1 1.4-1.5 1.4-2.7.2-1.1-1.2-1.5-1.2-2.5.3-1 1.3-1.5 1.4-2.1.4-.5-.8-.4-1.1.2-.7.6.4 1.4 0 1.7-.8.6-1.6 2.6-1.6 3.7-.2.3.5.9.2 1.1-.5.7-1.7-3.9-2.3-5.7-.8-.8.7-1 .2-.7-1.8.2-1.9-.2-3.3-1.4-4.3-1.2-.9-1.5-1-1-.1.6 1 .1 1.2-2 .9-2.2-.3-2.8-.9-2.9-2.9-.1-1.4-.4-3.2-.8-4-.5-1.3.3-1.5 4.2-1.2 2.6.1 6 .5 7.4.8 1.8.3 3-.1 3.8-1.2.8-1.4.9-1.1.4 1.3-.4 2.5-.3 2.7.6 1.2.7-1.3.8-2.7 0-4.9-.6-1.7-.8-3.4-.6-3.9.3-.4-.4-.6-1.7-.4-2.5.5-4.3-1.5-2.5-2.8.8-.6.8-.7-.3-.4-.8.2-1.4 1.3-1.2 2.3.2 1.8.2 1.8-1.3 0-1.2-1.6-1.2-2.2-.2-2.8.7-.4-1-.8-4-.9-8.9-.2-9.4-.3-10.6-2-.7-.8-2.1-1.8-3.1-2.2-1.7-.7-1.7-.6-.5 1 1.3 1.5 1.2 1.5-1.1 0-1.4-.9-2.9-1.7-3.5-1.9-1-.3-1.6-1.9-1.8-5.1-.1-.9-.6-1.6-1.2-1.4-.5.2-.9 1.1-.9 2 .1.9-.2 1.5-.6 1.2-.4-.2-.7-1.9-.8-3.6 0-1.8-.7-3.6-1.4-4-.7-.5.6-.7 3.2-.4 3 .3 4 .1 3-.5-1.3-.8-1.2-1.1.4-2.3 1.9-1.4 1.4-4.3-.5-3.2-.5.4-.9.1-.9-.5s-.5-.8-1.2-.4c-.9.5-.9.2.1-.9 1.1-1.4 1.1-2 0-3.5-1.3-1.5-1.2-1.6.4-.3 1.5 1.2 1.7 1.1 1.7-.3 0-.9-.8-1.6-1.7-1.6-1.4 0-1.5-.2-.5-.9.9-.5.1-.9-2.5-.9-5.7-.2-7.4-.7-8.5-2.5-.5-.9-1.6-1.7-2.4-1.7-.8 0-1.3-.4-1-.8.8-1.3-.7-3-2.9-3.4-1.1-.1-2.5-1-3.2-1.8-.6-.8-1.6-1.6-2.2-1.6-.6-.1-1.8-.2-2.6-.3-.8 0-1.5-.6-1.5-1.2 0-.5.6-.7 1.3-.3.7.5.6 0-.3-1.1-1.4-1.7-1.3-1.8.8-1.3 1.9.5 2.2.2 2.2-2.2 0-2.3-.4-2.7-1.9-2.3-1.5.4-2-.1-2.3-1.9-.2-1.4-.9-2.3-1.9-2.2-1.3.1-1.6-.8-1.6-3.5 0-6.4-.7-10-1.8-9.3-.5.3-1.8.8-2.8.9-1.5.3-1.6.1-.5-1.1.8-.8 1.5-1 1.9-.4.4.5.9.3 1.2-.5.4-1.2 0-1.5-1.5-1.2-1.2.3-3.4-.2-4.9-.9-2.4-1.2-2.7-1.2-2.2.2.4 1 .2 1.3-.5.8-.7-.4-1.2-1.6-1.2-2.7 0-1-.5-1.9-1.1-1.9-.5 0-.7.6-.4 1.2.4.7-.2.3-1.3-.9s-2.3-1.9-2.7-1.5c-.5.4-.4 0 .1-.8 1.3-2.2 1.4-4.1.1-3.3-.6.4-.8.1-.5-.8.6-1.5-1.1-2-7.4-2.2-1.6 0-2.8-.5-2.8-1s.8-.6 1.8-.3c1.5.5 1.5.4.2-.6-1.2-1-1.6-4-1.8-13.6-.3-11.7-.2-12.2 1.8-12.2 1.7 0 2-.6 2-4 0-3.3.3-4 2-4s2-.7 2-4v-4h4c3.3 0 4-.3 4-2 0-1.3.7-2 2-2s2-.7 2-2c0-1.7.7-2 4-2s4-.3 4-2c0-1.3.7-2 2-2 1.7 0 2-.7 2-4v-4h8v-8h4c3.3 0 4-.3 4-2s.7-2 4-2 4-.3 4-2c0-1.8.7-2 8-2s8-.2 8-2 .7-2 6-2 6-.2 6-2c0-1.7.7-2 4-2s4-.3 4-2c0-1.9.7-2 10-2s10-.1 10-2c0-1.8.7-2 8-2s8-.2 8-2c0-1.3.7-2 2-2s2-.7 2-2 .7-2 2-2 2 .7 2 2 .7 2 2 2 2-.7 2-2c0-1.9.7-2 10-2s10-.1 10-2c0-1.8.7-2 8-2s8-.2 8-2c0-1.9.7-2 12-2s12-.1 12-2c0-1.8.7-2 8-2s8-.2 8-2 .7-2 8-2 8-.2 8-2c0-1.9.7-2 10-2s10-.1 10-2c0-1.3.7-2 2-2s2 .7 2 2 .7 2 2 2c1.7 0 2-.7 2-4s-.3-4-2-4-2-.7-2-4-.3-4-2-4-2-.7-2-4-.3-4-2-4c-1.3 0-2-.7-2-2s-.7-2-2-2-2-.7-2-2-.7-2-2-2-2-.7-2-2c0-1.7-.7-2-4-2s-4-.3-4-2-.7-2-4-2-4-.3-4-2-.7-2-4-2-4-.3-4-2-.7-2-4-2-4-.3-4-2c0-1.3-.7-2-2-2s-2-.7-2-2c0-1.7-.7-2-4-2s-4-.3-4-2c0-1.8-.7-2-6-2s-6-.2-6-2c0-1.7-.7-2-4-2s-4-.3-4-2-.7-2-4-2-4-.3-4-2-.7-2-4-2-4-.3-4-2c0-1.8-.7-2-8-2s-8-.2-8-2-.7-2-6.1-2c-3.3 0-5.8-.4-5.5-.8 1-1.6-1.1-3.2-4.5-3.5-2.2-.2-3.4-.8-3.4-1.7 0-1.2-1.8-1.6-8.2-1.8-7.5-.3-8.3-.5-8.3-2.2 0-1.8-.8-2-8.2-2.1-11.2-.2-11.3-.2-11.3-1.9 0-1.2-2-1.6-10.4-1.8-6.3-.2-11.1-.8-12-1.5-.8-.7-1.2-.7-.8-.1.4.7-1.1 1.1-4.4 1.1-4.5.1-4.9-.1-3.7-1.5 1.2-1.6 1.1-1.6-.6-.2-2.3 1.8-12.5 2.3-14.5.6-1-.7-1.3-.7-.8 0 .4.7-1.1 1.1-4.4 1.1-4.5.1-4.9-.1-3.7-1.5 1.2-1.6 1.1-1.6-.6-.2-2.3 1.8-12.5 2.3-14.5.6-1-.7-1.3-.7-.8 0 .4.7-1.1 1.1-4.4 1.1-4.4.1-4.8-.1-3.7-1.5 1-1.2 1-1.4.1-.8-.7.4-1.3.2-1.3-.3 0-.7-3.1-1.1-8.3-1.1-5.3 0-8.8-.5-9.6-1.3-1.1-1-1.3-1-.7 0 .5.9-.2 1.3-2.3 1.3-1.7 0-3-.3-3-.8.4-2.5-.4-3.2-4.1-3.2-3.3 0-4 .4-4 1.9s-.7 1.9-4 1.8l-4-.1V208h-4c-3.3 0-4 .3-4 2 0 1.3-.7 2-2 2s-2-.7-2-2-.7-2-2-2c-1.7 0-2-.7-2-4v-4h-6c-5.3 0-6-.2-6-2 0-1.3-.7-2-2-2s-2 .7-2 2-.7 2-2 2-2-.7-2-2c0-1.7-.7-2-4-2s-4-.3-4-2c0-1.3-.7-2-2-2s-2-.7-2-2c0-1.8-.7-2-6-2s-6-.2-6-2c0-1.7-.7-2-4-2s-4-.3-4-2-.7-2-4-2-4-.3-4-2c0-1.3-.7-2-2-2s-2-.7-2-2-.7-2-2-2-2-.7-2-2-.7-2-2-2-2-.7-2-2c0-1.8-.7-2-6-2s-6-.2-6-2c0-1.7-.7-2-4-2s-4-.3-4-2c0-1.9-.7-2-12-2s-12-.1-12-2c0-1.3-.7-2-2-2s-2-.7-2-2c0-1.9-.7-2-16-2s-16-.1-16-2c0-2.1-.1-2.1-22.7-2.3-1.3 0-2.3-.4-2.3-.9s.9-.7 1.9-.3c1.1.3 2.2.1 2.6-.4.4-.7-.1-.8-1.1-.4-1 .3-1.5.2-1.2-.3.9-1.4-5.4-1.5-7.1-.1-1.2.9-1.3.9-.7-.1.4-.7.2-1.2-.7-1.2-.8 0-1.8.7-2.1 1.6-.3.8-1 1.3-1.5 1-.5-.4-1.2-.1-1.4.4-.3.6-.4.5-.2-.2.1-.7.8-1.2 1.4-1.1.6.2 1.1-.1 1.1-.5s-5.8-.8-12.9-.7c-10.8 0-12.8.2-12.3 1.4.4 1.1.7 1.1 1 .3.2-.7.9-.9 1.5-.5 2 1.2 15.7 1.1 14.9-.1-.3-.6.1-.5 1 .2 1.1.9 1.8.9 2.1.2.3-.6.4-.5.3.2-.2 1-3.7 1.3-13.7 1.3-12.9.1-16.5.7-15.4 2.5.3.5.1 1.1-.4 1.4-.4.3-.8-.4-.7-1.6.1-1.7-.5-2.2-2.7-2.3-2.2-.2-2.7.2-2.2 1.4.5 1.5.4 1.5-.7 0-1.6-2-2.8-2-5.3-.3-1.1.8-2.4 1.4-3 1.4-.5 0 .3-.8 2-1.8 2.3-1.4 4.7-1.8 10.8-1.6 7.4.1 10.1-.6 7.6-2.2-.8-.4-.9-.3-.5.4s.1 1.2-.9 1.2c-.9 0-1.4-.4-1.1-.8.3-.5-.1-.9-.9-.9s-1.5.4-1.5.9c0 .4-.5.8-1.1.8-.5 0-.8-.3-.5-.8.2-.4-2-.7-5-.7s-5.5.2-5.5.5zm53.1 1c0 .5-.2 1-.4 1-.3 0-.8-.5-1.1-1-.3-.6-.1-1 .4-1 .6 0 1.1.4 1.1 1zm-117 3.5c0 .7-3 1.3-3.4.7-.3-.4.4-.9 1.5-.9 1-.1 1.9 0 1.9.2zm13.1 7.8c-1 .9-1.1.8-.5-.6.3-1 .9-1.5 1.2-1.2.3.3 0 1.1-.7 1.8zm-18 9.4c1.3 1.6 1.2 1.7-.3.4-1.7-1.3-2.2-2.1-1.4-2.1.2 0 1 .8 1.7 1.7zm-24 2.6c-1 .9-1.1.8-.5-.6.3-1 .9-1.5 1.2-1.2.3.3 0 1.1-.7 1.8zM75 178.4c0 .2-.8 1-1.7 1.7-1.6 1.3-1.7 1.2-.4-.4 1.3-1.6 2.1-2.1 2.1-1.3zm3.4 2.2c.3.8.2 1.2-.4.9-.6-.3-1-1-1-1.6 0-1.4.7-1.1 1.4.7zm-5.4 1.8c0 .3-.4.8-1 1.1-.5.3-1 .1-1-.4 0-.6.5-1.1 1-1.1.6 0 1 .2 1 .4zm3.1 2.9c-1 .9-1.1.8-.5-.6.3-1 .9-1.5 1.2-1.2.3.3 0 1.1-.7 1.8zm7.4-1.3c-.3.5-1.2 1-1.8 1-.7 0-.6-.4.3-1 1.9-1.2 2.3-1.2 1.5 0zm-14.9 4.4c1 .8 1.6 1.8 1.1 2.2-.4.4-.7.2-.7-.4 0-.7-.6-1.2-1.4-1.2-.8 0-1.8-.5-2.1-1-.9-1.5.8-1.2 3.1.4zm-12.2 5.8c-.3.4-1.3.2-2.3-.4-1.5-.9-1.7-1.5-.8-3 1.1-1.6 1.2-1.6 2.3.5.7 1.2 1 2.5.8 2.9zM79 190c0 .5-.2 1-.4 1-.3 0-.8-.5-1.1-1-.3-.6-.1-1 .4-1 .6 0 1.1.4 1.1 1zm-17.8 1.8c-.7.2-1 .8-.7 1.3.4.5-.2.6-1.1.2-1.1-.4-1.3-.8-.6-1.1.7-.2 1-.8.7-1.3-.4-.5.2-.6 1.1-.2 1.1.4 1.3.8.6 1.1zm10.5.4c-.3.8-.6.5-.6-.6-.1-1.1.2-1.7.5-1.3.3.3.4 1.2.1 1.9zm-3.3-.3c.3.5-.2 1.5-1.2 2.2-1.5 1.3-1.6 1.2-.4-.3 1-1.3 1-1.7 0-2.1-.9-.4-.9-.6-.1-.6.6-.1 1.4.3 1.7.8zm4.6 2.5c0 .2-.8 1-1.7 1.7-1.6 1.3-1.7 1.2-.4-.4 1.3-1.6 2.1-2.1 2.1-1.3zm3.4 7.5c.3.5-.1 1.1-.9 1.4-.9.4-1.2.1-.8-.9.6-1.6 1-1.7 1.7-.5zm-7.7 1.8c-.4.3-.2 1.2.5 2 .8 1.1.7 1.2-.6.7-1.8-.7-2.2-3.4-.4-3.4.6 0 .8.3.5.7zm-1.2 4.3c.3.6-.1.7-.9.4-1.8-.7-2.1-1.4-.7-1.4.6 0 1.3.4 1.6 1zm-20 3.1c-.4.5-.1.9.6.9.8 0 .8.5-.2 1.6-.8 1-1.5 1.2-1.7.5-.2-.6-.9-.8-1.4-.5-.7.5-.8.2-.2-.7.5-.8.9-1.7 1-2.2.1-.4.2-1 .3-1.3 0-.3.6-.2 1.1.1.6.4.8 1.1.5 1.6zm5.9-.6c-.4.8-1.1 1.2-1.6.9-.6-.4-.5-1 .3-1.5 1.9-1.2 1.9-1.1 1.3.6zm3.9 0c-.3.9-.8 1.4-1 1.1-.3-.3-.2-.9.2-1.5.9-1.6 1.5-1.3.8.4zm8.2-.5c-.3.5-1.2 1-1.8 1-.7 0-.6-.4.3-1 1.9-1.2 2.3-1.2 1.5 0zM55 214c0 .5-.5 1-1.1 1-.5 0-.7-.5-.4-1 .3-.6.8-1 1.1-1 .2 0 .4.4.4 1zm6.5 2c.3.6-.1.7-.9.4-1.8-.7-2.1-1.4-.7-1.4.6 0 1.3.4 1.6 1zm-7.6 6.4c-.9.8-1 .7-.5-.7.3-1 .7-2.4.7-3 .1-.7.3-.4.6.7.3 1-.1 2.3-.8 3zm-.9-3c0 .2-.7.7-1.6 1-.8.3-1.2.2-.9-.4.6-1 2.5-1.4 2.5-.6zM30.5 230c-.3.5-1.2 1-1.8 1-.7 0-.6-.4.3-1 1.9-1.2 2.3-1.2 1.5 0zm-8.8 27.5c0 .8-.4 1.2-.9.9-.5-.3-.6-1-.3-1.5.9-1.3 1.2-1.1 1.2.6zm17.3 2.1c0 .8-1.9 1.3-2.4.6-.3-.5.1-.9.9-.9s1.5.2 1.5.3zm0 5.5c0 .5-.4.9-.8.9-.5 0-.9-.7-.9-1.5s.4-1.2.9-.9c.4.3.8.9.8 1.5zm-3.6 9.9c-.6.6-1 .3-1-1s.4-1.6 1-1c.7.7.7 1.3 0 2zm-3.9 3c.3.5.1 1-.4 1-.6 0-1.1-.5-1.1-1 0-.6.2-1 .4-1 .3 0 .8.4 1.1 1zm-8 6c-.3.5-1.2 1-1.8 1-.7 0-.6-.4.3-1 1.9-1.2 2.3-1.2 1.5 0zm-5.2 1.5c-.3.9-.8 1.4-1 1.1-.3-.3-.2-.9.2-1.5.9-1.6 1.5-1.3.8.4zm17.3.8c.3 2.1-2.5 1.9-4.4-.3-.7-.8-1.1-1.1-1-.5.2.5-.1 1.2-.6 1.5-.5.3-1-.2-1.1-1-.2-1.2.6-1.6 3.3-1.5 2.6 0 3.6.5 3.8 1.8zm-4.2 8.7c-.6.6-1 .3-1-1s.4-1.6 1-1c.7.7.7 1.3 0 2zm-3.7 2.5c.4.4.2.5-.6 0-1-.6-1.2-.2-.7 1.3.4 1.1.2 2.3-.4 2.7-.5.3-1 1.1-1 1.7 0 .6 1.2.1 2.8-1.3 1.5-1.3 2.4-2 2-1.5-.4.5 0 1.4.9 2.1 1.4 1 1.3 1.2-.7 1-2.6-.2-7 3.1-7 5.2 0 .9.5 1.1 1.3.7.9-.6.9-.5 0 .8-.7.8-1 1.8-.6 2.2.4.4 0 .4-1 0-.9-.3-1.5-.9-1.2-1.3.8-1.3-2.6-5.2-3.8-4.4-.7.4-.6-.1.2-1.1 1.3-1.5 1.3-1.9 0-2.7-.8-.5-.9-.9-.3-.9.6 0 1.7.7 2.4 1.5 1 1.2 1 1.5 0 1.5-1.7 0-.4 1.3 1.5 1.6 1.8.3 1.8-.1.4-2.9-.9-2-.9-2 .4-.5 1.8 2.3 2.3 2.3 2.3-.2 0-1.1-.5-2-1-2-.6 0-.5-.5.2-1.2 1.5-1.5 1.6-3.1 0-2.2-.6.4-.8.3-.5-.4.8-1.2 3.2-1 4.4.3zm0 9.9c0 .8-.6 1.2-1.5.9-1.1-.5-1.1-.7 0-1.4.7-.5 1.3-.9 1.4-.9 0 0 .1.6.1 1.4zm-8.7 8c0 .3-.4.8-1 1.1-.5.3-1 .1-1-.4 0-.6.5-1.1 1-1.1.6 0 1 .2 1 .4zm5.5 2.6c.3.5.1 1-.4 1-.6 0-1.1-.5-1.1-1 0-.6.2-1 .4-1 .3 0 .8.4 1.1 1zm2.9 13.1c-.3.5-1 .7-1.5.3-.5-.3-.7-1-.3-1.5.3-.5 1-.7 1.5-.3.5.3.7 1 .3 1.5zm-3.8 4.6c-.2.9-.8 1.9-1.4 2.1-.7.2-1 .8-.7 1.3.4.5-.2.6-1.1.2-1.3-.5-1.5-.3-.9.8.8 1.2.6 1.2-.8 0-1.8-1.4-2.2-2.2-.9-2 1.9.3 3.3-.2 2.7-1-.4-.7 1.7-2.8 3.2-3.1.1 0 0 .8-.1 1.7zm-8.7 6.7c.9 1.1.9 1.6 0 2.2-.8.4-.9.3-.5-.4s.2-1.2-.3-1.2c-.6 0-1.1-.5-1.1-1 0-1.4.5-1.3 1.9.4zm466.3 104c.4.6.8 1.5.8 2.1-.1.5-.5.2-1.1-.8-.6-.9-1.4-1.5-1.9-1.2-.5.3-1.1.2-1.4-.3-.8-1.3 2.8-1.1 3.6.2zm-2.8 9.4c.3.5-.1.9-.9.9s-1.2-.4-.9-.9c.3-.4.7-.8.9-.8.2 0 .6.4.9.8zm20 8.3c.3.3-.5.5-1.9.5-1.3 0-2.2-.3-1.9-.7.4-.8 3-.6 3.8.2zm8.1 21.8c.3.5 0 1.3-.6 1.7-.7.4-.9.3-.5-.4.3-.5 0-1.3-.6-1.5-.9-.4-1-.6-.1-.6.6-.1 1.4.3 1.8.8zm3.5 1.2c0 .5-.4.9-.8.9-.5 0-.9-.7-.9-1.5s.4-1.2.9-.9c.4.3.8.9.8 1.5zm5.7 14.4c0 .8-.4 1.2-.9.9-.4-.3-.8 0-.8.7s-.3.9-.6.6c-.4-.4-.1-1.3.6-2.2 1.5-1.9 1.7-1.9 1.7 0zm4.7 4.1c.3.8.2 1.2-.4.9-.6-.3-1-1-1-1.6 0-1.4.7-1.1 1.4.7zm11.7 3.3c-1.2 1.2-2.1 1.6-2.1 1 0-.5-.4-.8-.9-.5-.4.3-1.7-.1-2.7-1-1.8-1.4-1.8-1.5.4-.4 1.7.8 2.2.8 2.3-.2 0-1 .2-1 .6-.1.3 1 .8.9 2-.3.8-.8 1.7-1.3 2-1 .3.2-.5 1.4-1.6 2.5zm30.2 28.3c-.4.7-1.6 1.4-2.5 1.4-1 .1-1.5-.2-1.2-.7.3-.5 1.2-.9 2-.9s1.4-.4 1.4-1c0-.5-.8-.6-1.7-.3-1.6.6-1.6.5-.4-1.1 1.3-1.5 1.5-1.6 2.3-.2.5.9.5 2.2.1 2.8zm-5.2-.9c-1 .9-1.1.8-.5-.6.3-1 .9-1.5 1.2-1.2.3.3 0 1.1-.7 1.8zm-11.1 1.8c0 .5-.5.9-1.2.9-.6 0-.8-.3-.5-.7.4-.3.1-1.3-.6-2.2-1.1-1.4-1-1.4.6-.2.9.7 1.7 1.7 1.7 2.2zm6.7-1.1c.1 1.5-.3 1.9-2 1.6-1.2-.3-2.5-.5-2.9-.5-.5-.1-.8-.5-.8-1 0-.6.9-.8 2-.6 1.1.2 2.2 0 2.5-.6.9-1.3 1.1-1.1 1.2 1.1zm-.6 18.3c-1 .9-1.1.8-.5-.6.3-1 .9-1.5 1.2-1.2.3.3 0 1.1-.7 1.8zm15.7 4.3c.1.1-.4.7-1.3 1.4-1.3 1.1-1.4 1-.9-.4.4-.9.3-1.6-.2-1.5-1.8.3-2.5-.1-1.9-1.1.5-.8 1.2-.7 2.3.2 1 .7 1.8 1.3 2 1.4zM561 562c0 .5-.5 1-1.1 1-.5 0-.7-.5-.4-1 .3-.6.8-1 1.1-1 .2 0 .4.4.4 1zm7 2.5c-.5.7-.7 1.4-.4 1.8.3.3-.2.4-1.3.2-1-.2-2.1-.4-2.5-.4-.5-.1-.8-.6-.8-1.2 0-.5.4-.8.9-.4.5.3 1.2.2 1.5-.3.3-.5 1.2-.9 2-.9 1.1 0 1.3.4.6 1.2zm-9.3 5.9c0 .8-.6 1.2-1.2 1-.6-.3-1.2-1.1-1.2-1.8 0-.8.6-1.2 1.2-1 .6.3 1.2 1.1 1.2 1.8zm11.7 20.2c.3.8.2 1.2-.4.9-.6-.3-1-.1-1 .5s-.5.8-1 .5c-.8-.5-.7-1.1.1-2.1 1.4-1.8 1.6-1.7 2.3.2zm-.3 5.5c.8 1.5.8 2.4 0 3.2-.8.8-.6 1.6.7 3.1 1.6 1.8 1.6 1.9 0 1.3-1.7-.6-2.3.3-1.9 2.6.1.5-.3.6-.9.2-.6-.4-.7-1.2-.1-2.4.6-1 .7-2.8.4-4.1-.4-1.6-.3-2.1.5-1.6.7.4 1.2.5 1.2.1 0-.3-1-1-2.2-1.5-2.1-.8-2.1-.9-.3-1 1.7 0 1.7-.2.5-1-.9-.6-1-1-.3-1s1.7.9 2.4 2.1zm12.3 44.5c.3.8.2 1.2-.4.9-.6-.3-1-1-1-1.6 0-1.4.7-1.1 1.4.7zm-6.4 5c0 .8-1.9 1.3-2.4.6-.3-.5.1-.9.9-.9s1.5.2 1.5.3zm5.8 15.1c-1.4 1.7-2.8 1.6-2.8-.1 0-.8.9-1.4 1.9-1.3 1.5.1 1.7.4.9 1.4zm-3.8 1.4c0 .5-.4.9-.8.9-.5 0-.9-.7-.9-1.5s.4-1.2.9-.9c.4.3.8.9.8 1.5zm-3 2.4c0 .2-1 .9-2.2 1.5-2.2 1.1-2.2 1-.4-.4 2.1-1.7 2.6-1.9 2.6-1.1zm2 5.5c0 .5-.5 1-1.1 1-.5 0-.7-.5-.4-1 .3-.6.8-1 1.1-1 .2 0 .4.4.4 1zm-10.5 8c.3.5.1 1-.4 1-.6 0-1.1-.5-1.1-1 0-.6.2-1 .4-1 .3 0 .8.4 1.1 1zm15.5 1.9c-.5 1.1-.7 2.6-.4 3.4.7 1.8-1.2 3.2-2.2 1.6-.5-.8-.3-.9.6-.4 1 .6 1.2.4.7-.9-.6-1.6.7-5.6 1.9-5.6.2 0 0 .9-.6 1.9zm-10.6 3.1c-.6.6-1 .3-1-1s.4-1.6 1-1c.7.7.7 1.3 0 2zm14.6 1.6c0 .2-.9.8-2 1.4-1.5.8-1.8.8-1.4-.3.4-1.1 3.4-2.1 3.4-1.1zm-4.7 5.1c-.5 1.2-.8 1.3-1.1.4-.3-1-.6-1-1.2-.1-.5.8-.9.7-1.3-.5-.4-.9-.3-1.3.2-1 .5.3 1.2.1 1.6-.5 1-1.6 2.5-.1 1.8 1.7zm1.7 7.7c0 .3-.4.8-1 1.1-.5.3-1 .1-1-.4 0-.6.5-1.1 1-1.1.6 0 1 .2 1 .4zm-5.8 1.3c-.6.2-.9 1-.6 1.5.4.7.2.8-.5.4-1.3-.9-.5-2.6 1.2-2.5.9 0 .8.2-.1.6zm6.8 25.9c0 .2-.9 0-2-.6s-2-1.3-2-1.6c0-.2.9 0 2 .6s2 1.3 2 1.6zm-1.5 1.3c.3.5 0 1.3-.6 1.7-.7.4-.9.3-.5-.4.3-.5 0-1.3-.6-1.5-.9-.4-1-.6-.1-.6.6-.1 1.4.3 1.8.8z"/><path d="M54 191.9c0 .6.4 1.3 1 1.6.6.3.7-.1.4-.9-.7-1.8-1.4-2.1-1.4-.7zM154.8 145.8c.3 1 .7 1.1 1.2.2.6-.9.9-.9 1.3.1.4 1.1.6 1.1.6.1.1-.7.6-1 1.2-.6 1.9 1.2 6.8 1.2 7.2 0 .3-.7-1.6-1.1-5.8-1.1-4.9 0-6.1.3-5.7 1.3zM167.9 145.8c-1.1 1.4-1.1 1.5.1.4 1.7-1.4 3.4-1.6 2.5-.2-.9 1.4.1 1.2 1.3-.3.8-1 .6-1.3-.8-1.4-1-.1-2.4.6-3.1 1.5zM175.3 145c-1.3.5-2.3 1.2-2.3 1.4 0 .3.6.3 1.4 0 .8-.3 2.3-.1 3.3.4 2.1 1.1 6.3-1.1 4.4-2.3-.6-.3-1.1-.2-1.1.2 0 .5-.9.9-2 1-1.1.1-1.8-.2-1.5-.8.7-1.1.7-1.1-2.2.1zM126 149.4c0 .3.9 1 2 1.6 1.1.6 2 .8 2 .6 0-.3-.9-1-2-1.6-1.1-.6-2-.8-2-.6zM101.6 157.5c.4.8 1.1 1.5 1.6 1.5.6 0 .5-.6-.2-1.5-.7-.8-1.4-1.5-1.6-1.5-.2 0-.1.7.2 1.5zM132.9 157.7c-1.3 1.6-1.2 1.7.4.4 1.6-1.3 2.1-2.1 1.3-2.1-.2 0-1 .8-1.7 1.7zM84 159.5c0 .2.6.8 1.3 1.4 1 .8 1.4.7 1.4-.2 0-.8-.6-1.4-1.4-1.4-.7 0-1.3.1-1.3.2zM84 171.6c0 .6-1.3.9-2.9.8-2.3-.1-2.8.2-2.4 1.5.3 1.2.1 1.2-1.1-.3-.9-1.1-1.9-1.6-2.3-1.3-1.1 1.1 3 3.7 4.3 2.6.6-.5 1.5-.5 1.9-.1.5.4.5.1.1-.6-.8-1.3.6-1.7 1.8-.5.3.4 1.3.8 2.2.9 1.3.2 1.3 0 .2-1.4-.7-.9-1.4-1.9-1.5-2.1-.2-.2-.3 0-.3.5zM89.3 173.6c0 .6.7 1 1.6.9.9-.2 2-.4 2.4-.4.5-.1.6-.5.2-1-.8-1.4-4.2-.9-4.2.5zM65.3 176.5c0 .8.4 1.2.9.9.5-.3.6-1 .3-1.5-.9-1.3-1.2-1.1-1.2.6zM62.6 198.2c.3.5 1 .6 1.5.3 1.3-.9 1.1-1.2-.6-1.2-.8 0-1.2.4-.9.9zM60.4 202c0 2.8.1 2.9 1.8 1.3 1-.9 1.7-1.7 1.6-1.7-.2-.1-1-.7-1.9-1.4-1.3-1-1.5-.7-1.5 1.8zM55.5 204.1c-.4.6-.5 1.2-.2 1.5.2.3.7-.2 1-1.1.7-1.7.1-2-.8-.4zM49.5 205c.6 1 .4 1.2-.8.7-.9-.3-1.8-.3-2.1.1-.3.4.4.8 1.4.9 2.3.2 3.5-1.3 1.9-2.3-.8-.5-.9-.3-.4.6zM561.3 225.5c0 .9.4 1.4.9 1.3.5-.2 1-.8 1-1.3s-.5-1.1-1-1.3c-.5-.1-.9.4-.9 1.3zM35.5 226c-.3.5-.1 1 .4 1 .6 0 1.1-.5 1.1-1 0-.6-.2-1-.4-1-.3 0-.8.4-1.1 1zM597.3 233.5c0 .9.4 1.4.9 1.3.5-.2 1-.8 1-1.3s-.5-1.1-1-1.3c-.5-.1-.9.4-.9 1.3zM43.4 233.8c.4.3 1.4.7 2.2.8.9.1 1.3 0 1-.4-.4-.3-1.4-.7-2.2-.8-.9-.1-1.3 0-1 .4zM17.4 252.8c.3.5 0 1.3-.6 1.5-.9.4-1 .6-.1.6 1.7.1 2.5-1.6 1.2-2.5-.7-.4-.9-.3-.5.4zM23.1 252.7c-.1 1.7 1.9 2.7 3.1 1.5.6-.6.6-1.2-.3-1.7-.8-.5-1-.4-.5.3.4.7.3 1.2-.3 1.2-.5 0-1.2-.6-1.4-1.3-.4-.9-.6-.9-.6 0zM30.2 259.7c1.4 1.7 2.5 1.6 3.2-.2.4-1.1-.1-1.4-1.9-1.3-1.8.2-2.1.5-1.3 1.5zM24 271.4c0 .2.8 1 1.8 1.7 1.5 1.3 1.6 1.2.3-.4s-2.1-2.1-2.1-1.3zM13.4 312.8c.3.5 0 1.3-.6 1.5-.9.4-1 .6-.1.6 1.7.1 2.5-1.6 1.2-2.5-.7-.4-.9-.3-.5.4zM12.8 317.7c.6.2.9 1 .6 1.5-.4.7-.2.8.5.4 1.3-.9.5-2.6-1.2-2.5-.9 0-.8.2.1.6zM473.3 430.5c-.3.9-.3 1.9.1 2.2.3.4.6-.1.6-1.1s.5-1.4 1.2-1c.7.4.8.3.4-.4-1-1.6-1.5-1.5-2.3.3zM474 434c-1.2.8-1.2 1-.1 1 1 0 1.1.3.2 1.4-.9 1-.9 1.6-.1 2.1.6.4 1.4.4 1.7.1.4-.3.1-.6-.6-.6s-.9-.5-.4-1.3c.7-1.1 1.4-3.7 1-3.7-.1 0-.9.5-1.7 1zM501.4 463.4c.1.9.7 2.1 1.3 2.7.6.6.9 1.9.6 2.8-.5 1.3-.3 1.4.7.4 1.1-1 1.1-1.6-.3-3-.8-1-1.6-2.2-1.5-2.6 0-.5-.3-1.1-.5-1.4-.3-.3-.4.2-.3 1.1zM505.5 469.9c-.3.5 0 1.3.6 1.7.7.4.9.3.5-.4-.3-.5 0-1.3.6-1.5.9-.4 1-.6.1-.6-.6-.1-1.4.3-1.8.8zM520.6 493.4c.2.6 1.4 1.3 2.6 1.3 1.6.2 1.8-.1 1-.9-1.6-1.6-4.2-1.9-3.6-.4zM533.5 502.1c-.4.6-.4 1.3-.1 1.6.3.4.6.1.6-.6s.5-.9 1.2-.5.8.3.4-.4c-.9-1.5-1.3-1.5-2.1-.1zM533.3 521.5c0 .6.6 1.2 1.2 1.2s1.2-.6 1.2-1.2-.6-1.2-1.2-1.2-1.2.6-1.2 1.2zM542.3 525.3c.5 1.5 5.4 1.7 5.4.3 0-.6-1.3-1.2-2.9-1.3-1.7 0-2.7.4-2.5 1zM556.8 541.7c.6.2.9 1 .6 1.5-.4.7-.2.8.5.4 1.3-.9.5-2.6-1.2-2.5-.9 0-.8.2.1.6zM565.5 542.1c-.4.6-.4 1.3-.1 1.6.3.4.6.1.6-.6s.5-.9 1.2-.5.8.3.4-.4c-.9-1.5-1.3-1.5-2.1-.1zM549.9 543.1c0 .2-.2 1.1-.4 2-.1.9.3 1.6 1 1.6s1.2-.6 1.1-1.3c-.2-1.3-1.5-3.1-1.7-2.3zM566 584.9c0 .6.4 1.2.8 1.5.5.3.9-.1.9-.9s-.4-1.5-.9-1.5c-.4 0-.8.4-.8.9zM581.4 612.8c.3.5 0 1.3-.6 1.5-.9.4-1 .6-.1.6 1.7.1 2.5-1.6 1.2-2.5-.7-.4-.9-.3-.5.4zM585.6 627.5c.4.8 1.1 1.5 1.6 1.5.6 0 .5-.6-.2-1.5-.7-.8-1.4-1.5-1.6-1.5-.2 0-.1.7.2 1.5zM581.3 647.5c0 .8.4 1.2.9.9.5-.3.6-1 .3-1.5-.9-1.3-1.2-1.1-1.2.6zM578.1 665.4c-.9 1.1-.9 1.6.1 2.2.7.4 1 .4.6-.1-.4-.4-.3-1.4.3-2.2.6-.7.9-1.3.6-1.3-.2 0-1 .6-1.6 1.4zM579.4 705.4c-.5 1.2-.9 1.4-1.4.6-.4-.7-.7-.1-.7 1.4 0 1.4.4 2.6.9 2.6s.6-.5.3-1c-.3-.6.1-1 .9-1 2 0 2.7-1.3 1.6-3-.7-1.2-1-1.1-1.6.4zM582.1 712.9c-.9.6-1 1.1-.2 1.5.6.4 1.1 1.2 1.1 1.7 0 .6-.4.8-.8.5-.4-.2-.8.4-.9 1.4-.1 1 .4 2.1 1.2 2.4 1 .4 1.3-.6 1.2-4-.1-2.4-.2-4.4-.2-4.4s-.6.4-1.4.9zM586.2 727.9c-1.1.7-1.1.9 0 1.4.9.3 1.5-.1 1.5-.9s-.1-1.4-.1-1.4c-.1 0-.7.4-1.4.9zM585 732.1c0 .5.5.7 1 .4.6-.3 1-.8 1-1.1 0-.2-.4-.4-1-.4-.5 0-1 .5-1 1.1zM586.2 733.9c-1.1.7-1.1.9 0 1.4.9.3 1.5-.1 1.5-.9s-.1-1.4-.1-1.4c-.1 0-.7.4-1.4.9z"/></svg>